HIERARCHY
ROOT Hips
{
 OFFSET 0.000000 0.000000 0.000000
 CHANNELS 6 Xposition Yposition Zposition Yrotation Xrotation Zrotation
 JOINT Chest
 {
  OFFSET 0.000000 13.173100 -0.061900
  CHANNELS 3 Yrotation Xrotation Zrotation
  JOINT Chest2
  {
   OFFSET 0.000000 8.040800 0.126200
   CHANNELS 3 Yrotation Xrotation Zrotation
   JOINT Chest3
   {
    OFFSET 0.000000 7.994400 0.000000
    CHANNELS 3 Yrotation Xrotation Zrotation
    JOINT Chest4
    {
     OFFSET 0.000000 7.986200 0.000000
     CHANNELS 3 Yrotation Xrotation Zrotation
     JOINT Neck
     {
      OFFSET 0.000000 12.259400 0.000000
      CHANNELS 3 Yrotation Xrotation Zrotation
      JOINT Head
      {
       OFFSET 0.000000 7.518700 0.267100
       CHANNELS 3 Yrotation Xrotation Zrotation
       End Site
       {
        OFFSET 0.000000 13.617700 0.141000
       }
      }
     }
     JOINT RightCollar
     {
      OFFSET -2.983800 8.314300 0.000000
      CHANNELS 3 Yrotation Xrotation Zrotation
      JOINT RightShoulder
      {
       OFFSET -16.133400 0.000000 0.000000
       CHANNELS 3 Yrotation Xrotation Zrotation
       JOINT RightElbow
       {
        OFFSET 0.000000 -29.822100 0.000000
        CHANNELS 3 Yrotation Xrotation Zrotation
        JOINT RightWrist
        {
         OFFSET 0.000000 -24.437700 0.010900
         CHANNELS 3 Yrotation Xrotation Zrotation
         End Site
         {
          OFFSET 0.000000 -18.312300 0.000000
         }
        }
       }
      }
     }
     JOINT LeftCollar
     {
      OFFSET 2.983800 8.314300 0.000000
      CHANNELS 3 Yrotation Xrotation Zrotation
      JOINT LeftShoulder
      {
       OFFSET 16.133400 0.000000 0.000000
       CHANNELS 3 Yrotation Xrotation Zrotation
       JOINT LeftElbow
       {
        OFFSET 0.000000 -29.822100 0.000000
        CHANNELS 3 Yrotation Xrotation Zrotation
        JOINT LeftWrist
        {
         OFFSET 0.000000 -24.437700 0.010900
         CHANNELS 3 Yrotation Xrotation Zrotation
         End Site
         {
          OFFSET 0.000000 -18.312300 0.000000
         }
        }
       }
      }
     }
    }
   }
  }
 }
 JOINT RightHip
 {
  OFFSET -11.206700 0.306200 0.030900
  CHANNELS 3 Yrotation Xrotation Zrotation
  JOINT RightKnee
  {
   OFFSET 0.000000 -57.334900 0.009400
   CHANNELS 3 Yrotation Xrotation Zrotation
   JOINT RightAnkle
   {
    OFFSET 0.000000 -43.376200 0.036600
    CHANNELS 3 Yrotation Xrotation Zrotation
    JOINT RightToe
    {
     OFFSET 0.000000 -10.035500 18.363100
     CHANNELS 3 Yrotation Xrotation Zrotation
     End Site
     {
      OFFSET 0.000000 -1.618500 7.239000
     }
    }
   }
  }
 }
 JOINT LeftHip
 {
  OFFSET 11.206700 0.306200 0.030900
  CHANNELS 3 Yrotation Xrotation Zrotation
  JOINT LeftKnee
  {
   OFFSET 0.000000 -57.334900 0.009400
   CHANNELS 3 Yrotation Xrotation Zrotation
   JOINT LeftAnkle
   {
    OFFSET 0.000000 -43.376200 0.036600
    CHANNELS 3 Yrotation Xrotation Zrotation
    JOINT LeftToe
    {
     OFFSET 0.000000 -10.035500 18.363100
     CHANNELS 3 Yrotation Xrotation Zrotation
     End Site
     {
      OFFSET 0.000000 -1.618500 7.239000
     }
    }
   }
  }
 }
}
MOTION
Frames: 5
Frame Time: 0.008333
-95.519796 64.603572 89.596032 173.662034 -37.250894 -2.716521 1.942186 20.216899 1.764815 0.202368 2.658530 0.345309 0.367166 4.257013 0.576598 1.828730 17.385904 2.599509 2.613979 16.641288 -0.389617 4.953668 -4.869845 -1.680855 -3.699022 1.438770 -1.780126 -4.373375 -3.080284 3.712322 -113.782414 -83.273973 122.196444 0.244539 -3.713018 4.610897 -4.669968 1.293403 -0.987562 6.131635 -11.272638 3.242323 -160.528247 -58.274691 153.409765 -4.828641 -28.770005 22.727621 -4.252677 -43.795036 3.445492 -96.926655 85.857859 -92.317161 -0.760843 -8.141810 -3.891777 0.425230 -0.718899 0.228796 -3.683609 -40.518110 4.426171 74.696993 82.731342 64.597741 -5.581741 -12.365106 7.591944 0.437792 1.101333 0.243696
-95.522893 64.598429 89.599516 173.649723 -37.233547 -2.723417 1.939933 20.255369 1.770249 0.205161 2.675753 0.346968 0.368639 4.276737 0.579882 1.829513 17.449445 2.611467 2.627544 16.560964 -0.392134 5.002222 -4.975105 -1.651576 -3.730068 1.384874 -1.822407 -4.320816 -3.067827 3.792048 -113.990136 -83.304448 122.443021 0.283872 -3.719330 4.607906 -4.691518 1.217042 -0.975240 6.104942 -11.213951 3.221836 -160.803438 -58.481550 153.628365 -4.811632 -28.554209 22.611238 -4.272668 -43.809711 3.478230 -96.816323 85.855388 -92.216578 -0.764267 -8.145090 -3.893342 0.431907 -0.713206 0.231846 -3.669343 -40.536872 4.427194 74.710519 82.719574 64.626413 -5.578656 -12.373319 7.593333 0.431835 1.106332 0.239445
-95.526475 64.595299 89.601473 173.643240 -37.224865 -2.731910 1.934968 20.308305 1.774306 0.207484 2.690156 0.349051 0.370110 4.298200 0.583174 1.832355 17.486995 2.618820 2.635178 16.503220 -0.390163 5.023359 -5.088337 -1.644363 -3.744875 1.301772 -1.848396 -4.291137 -3.063440 3.831680 -113.695207 -83.346176 122.188887 0.322089 -3.722275 4.621542 -4.715707 1.166292 -0.958682 6.088888 -11.153379 3.203969 -161.004540 -58.646131 153.792733 -4.811066 -28.376601 22.526963 -4.288941 -43.815635 3.503739 -96.739396 85.852582 -92.146346 -0.770006 -8.145635 -3.891774 0.438935 -0.710241 0.231929 -3.666718 -40.545990 4.433145 74.719102 82.713080 64.642327 -5.577091 -12.378078 7.592420 0.430195 1.103135 0.238406
-95.529626 64.592225 89.604144 173.632514 -37.212988 -2.739312 1.936371 20.359114 1.780198 0.208664 2.703909 0.351939 0.371892 4.321219 0.586309 1.836331 17.527036 2.625297 2.636930 16.440663 -0.388831 5.032817 -5.181055 -1.661080 -3.764344 1.216123 -1.873956 -4.257922 -3.062760 3.869760 -113.435045 -83.391085 121.972560 0.360026 -3.713723 4.646337 -4.742460 1.114723 -0.937910 6.084948 -11.093092 3.186777 -161.130741 -58.772903 153.901042 -4.830037 -28.239985 22.465093 -4.302485 -43.827669 3.533590 -96.652039 85.846406 -92.064273 -0.780837 -8.136473 -3.893305 0.449421 -0.715145 0.236281 -3.662818 -40.557389 4.440419 74.719524 82.707039 64.650891 -5.574680 -12.386014 7.594266 0.426219 1.108774 0.234328
-95.531641 64.590071 89.605986 173.613532 -37.206294 -2.743859 1.937491 20.460843 1.784558 0.220790 2.673392 0.355643 0.374136 4.345394 0.589090 1.841976 17.568956 2.630386 2.632530 16.374719 -0.386730 5.025781 -5.314732 -1.651043 -3.787306 1.127383 -1.898820 -4.226527 -3.019332 3.909176 -113.577340 -83.423214 122.168764 0.396454 -3.696036 4.681635 -4.753296 1.014871 -0.925117 6.071268 -10.988777 3.189891 -161.194614 -58.867495 153.961687 -4.864519 -28.141754 22.408781 -4.304057 -43.834101 3.556557 -96.561374 85.842797 -91.971966 -0.779866 -8.126739 -3.895081 0.449122 -0.719742 0.241028 -3.649524 -40.564056 4.447190 74.759761 82.694803 64.701776 -5.574774 -12.392225 7.595073 0.419291 1.109659 0.230786
